<mxfile host="app.diagrams.net" modified="2023-11-14T17:55:31.572Z" agent="Mozilla/5.0 (X11; Linux x86_64) AppleWebKit/537.36 (KHTML, like Gecko) Chrome/119.0.0.0 Safari/537.36" etag="H0AiYsHlM7DvlSB2mmUl" version="22.1.0" type="google">
  <diagram name="Page-1" id="Pj5kiHI8Z1NaCRuctIF_">
    <mxGraphModel grid="1" page="1" gridSize="10" guides="1" tooltips="1" connect="1" arrows="1" fold="1" pageScale="1" pageWidth="827" pageHeight="1169" math="0" shadow="0">
      <root>
        <mxCell id="0" />
        <mxCell id="1" parent="0" />
        <mxCell id="a04T6ebmpYnLz7vBh2No-30" value="" style="group;shadow=0;opacity=30;glass=1;fillOpacity=70;strokeOpacity=70;overflow=fill;labelPadding=0;noLabel=1;fillColor=#009900;strokeColor=#A7B0BD;strokeWidth=0;" connectable="0" vertex="1" parent="1">
          <mxGeometry x="290" y="181" width="910" height="510" as="geometry" />
        </mxCell>
        <UserObject label="" id="a04T6ebmpYnLz7vBh2No-1">
          <mxCell style="rounded=0;whiteSpace=wrap;html=1;movable=0;resizable=0;rotatable=0;deletable=0;editable=0;locked=1;connectable=0;" vertex="1" parent="a04T6ebmpYnLz7vBh2No-30">
            <mxGeometry width="910" height="510" as="geometry" />
          </mxCell>
        </UserObject>
        <mxCell id="a04T6ebmpYnLz7vBh2No-2" value="" style="rounded=0;whiteSpace=wrap;html=1;fillColor=#5FC433;strokeColor=#2D7600;fontColor=#ffffff;shadow=1;opacity=30;" vertex="1" parent="a04T6ebmpYnLz7vBh2No-30">
          <mxGeometry y="60" width="185.91397849462365" height="450" as="geometry" />
        </mxCell>
        <mxCell id="a04T6ebmpYnLz7vBh2No-5" value="Book Charge Station" style="rounded=0;whiteSpace=wrap;html=1;fontStyle=1;fillColor=#CCFF99;strokeColor=#0e8088;shadow=1;opacity=30;" vertex="1" parent="a04T6ebmpYnLz7vBh2No-30">
          <mxGeometry x="14.67741935483871" y="130" width="156.55913978494624" height="30" as="geometry" />
        </mxCell>
        <mxCell id="a04T6ebmpYnLz7vBh2No-6" value="Dashboard" style="rounded=0;whiteSpace=wrap;html=1;strokeWidth=1;perimeterSpacing=1;fontStyle=1;shadow=1;opacity=30;" vertex="1" parent="a04T6ebmpYnLz7vBh2No-30">
          <mxGeometry x="14.67741935483871" y="90" width="156.55913978494624" height="30" as="geometry" />
        </mxCell>
        <mxCell id="a04T6ebmpYnLz7vBh2No-7" value="History" style="rounded=0;whiteSpace=wrap;html=1;fontStyle=1;align=center;shadow=1;opacity=30;" vertex="1" parent="a04T6ebmpYnLz7vBh2No-30">
          <mxGeometry x="14.67741935483871" y="170" width="156.55913978494624" height="30" as="geometry" />
        </mxCell>
        <mxCell id="a04T6ebmpYnLz7vBh2No-8" value="" style="rounded=0;whiteSpace=wrap;html=1;fillColor=#00DB00;shadow=1;opacity=30;glass=0;" vertex="1" parent="a04T6ebmpYnLz7vBh2No-30">
          <mxGeometry width="910" height="60" as="geometry" />
        </mxCell>
        <mxCell id="a04T6ebmpYnLz7vBh2No-9" value="&lt;font style=&quot;font-size: 23px;&quot;&gt;&lt;b&gt;Book My Charge Station&lt;/b&gt;&lt;/font&gt;" style="text;html=1;strokeColor=none;fillColor=none;align=center;verticalAlign=middle;whiteSpace=wrap;rounded=0;shadow=1;opacity=30;" vertex="1" parent="a04T6ebmpYnLz7vBh2No-30">
          <mxGeometry x="29.35483870967742" y="15" width="283.76344086021504" height="30" as="geometry" />
        </mxCell>
        <mxCell id="a04T6ebmpYnLz7vBh2No-46" value="" style="rounded=0;whiteSpace=wrap;html=1;fillColor=#000000;gradientColor=#b3b3b3;strokeColor=#666666;fillOpacity=35;strokeWidth=0;" vertex="1" parent="a04T6ebmpYnLz7vBh2No-30">
          <mxGeometry width="910" height="510" as="geometry" />
        </mxCell>
        <mxCell id="a04T6ebmpYnLz7vBh2No-47" value="" style="rounded=0;whiteSpace=wrap;html=1;" vertex="1" parent="a04T6ebmpYnLz7vBh2No-30">
          <mxGeometry x="322.90322580645164" y="40" width="244.6236559139785" height="420" as="geometry" />
        </mxCell>
        <mxCell id="a04T6ebmpYnLz7vBh2No-49" value="" style="rounded=0;whiteSpace=wrap;html=1;fillColor=#00A800;strokeColor=#00994D;strokeWidth=0;" vertex="1" parent="a04T6ebmpYnLz7vBh2No-30">
          <mxGeometry x="322.90322580645164" y="180" width="244.6236559139785" height="279" as="geometry" />
        </mxCell>
        <mxCell id="a04T6ebmpYnLz7vBh2No-50" value="" style="rounded=0;whiteSpace=wrap;html=1;fillColor=#dae8fc;strokeColor=#6c8ebf;" vertex="1" parent="a04T6ebmpYnLz7vBh2No-30">
          <mxGeometry x="322.90322580645164" y="40" width="244.6236559139785" height="50" as="geometry" />
        </mxCell>
        <mxCell id="a04T6ebmpYnLz7vBh2No-51" value="" style="ellipse;whiteSpace=wrap;html=1;aspect=fixed;strokeColor=#00CC00;" vertex="1" parent="a04T6ebmpYnLz7vBh2No-30">
          <mxGeometry x="410.9677419354839" y="215" width="63.60215053763441" height="63.60215053763441" as="geometry" />
        </mxCell>
        <mxCell id="a04T6ebmpYnLz7vBh2No-52" value="" style="verticalLabelPosition=bottom;verticalAlign=top;html=1;shape=mxgraph.basic.tick;strokeColor=#009900;fillColor=#00A800;" vertex="1" parent="a04T6ebmpYnLz7vBh2No-30">
          <mxGeometry x="421.241935483871" y="225" width="41.586021505376344" height="47.5" as="geometry" />
        </mxCell>
        <mxCell id="a04T6ebmpYnLz7vBh2No-53" value="&lt;font style=&quot;font-size: 14px;&quot; color=&quot;#ffffff&quot;&gt;Payment Successfull&lt;/font&gt;" style="text;html=1;strokeColor=none;fillColor=none;align=center;verticalAlign=middle;whiteSpace=wrap;rounded=0;" vertex="1" parent="a04T6ebmpYnLz7vBh2No-30">
          <mxGeometry x="366.93548387096774" y="288" width="148.73118279569894" height="30" as="geometry" />
        </mxCell>
        <mxCell id="a04T6ebmpYnLz7vBh2No-54" value="&lt;font color=&quot;#ffffff&quot; style=&quot;font-size: 15px;&quot;&gt;â‚¹ 11.20&lt;/font&gt;" style="text;html=1;strokeColor=none;fillColor=none;align=center;verticalAlign=middle;whiteSpace=wrap;rounded=0;" vertex="1" parent="a04T6ebmpYnLz7vBh2No-30">
          <mxGeometry x="406.0752688172043" y="320" width="68.49462365591398" height="30" as="geometry" />
        </mxCell>
        <mxCell id="a04T6ebmpYnLz7vBh2No-55" value="" style="rounded=0;whiteSpace=wrap;html=1;" vertex="1" parent="a04T6ebmpYnLz7vBh2No-30">
          <mxGeometry x="352.258064516129" y="47.5" width="39.13978494623656" height="35" as="geometry" />
        </mxCell>
        <mxCell id="a04T6ebmpYnLz7vBh2No-56" value="&lt;font style=&quot;font-size: 14px;&quot;&gt;Book My Charge Station&lt;/font&gt;" style="text;html=1;strokeColor=none;fillColor=none;align=center;verticalAlign=middle;whiteSpace=wrap;rounded=0;" vertex="1" parent="a04T6ebmpYnLz7vBh2No-30">
          <mxGeometry x="391.39784946236557" y="50" width="166.34408602150538" height="30" as="geometry" />
        </mxCell>
        <mxCell id="a04T6ebmpYnLz7vBh2No-62" value="&lt;font style=&quot;font-size: 14px;&quot;&gt;&lt;b&gt;Add New Card&lt;/b&gt;&lt;/font&gt;" style="text;html=1;strokeColor=none;fillColor=none;align=center;verticalAlign=middle;whiteSpace=wrap;rounded=0;" vertex="1" parent="a04T6ebmpYnLz7vBh2No-30">
          <mxGeometry x="322.90322580645164" y="90" width="117.41935483870968" height="30" as="geometry" />
        </mxCell>
        <mxCell id="a04T6ebmpYnLz7vBh2No-63" value="" style="rounded=0;whiteSpace=wrap;html=1;" vertex="1" parent="a04T6ebmpYnLz7vBh2No-30">
          <mxGeometry x="401.18279569892474" y="120" width="159.49462365591398" height="20" as="geometry" />
        </mxCell>
        <mxCell id="a04T6ebmpYnLz7vBh2No-64" value="Card Number" style="text;html=1;strokeColor=none;fillColor=none;align=center;verticalAlign=middle;whiteSpace=wrap;rounded=0;" vertex="1" parent="a04T6ebmpYnLz7vBh2No-30">
          <mxGeometry x="332.68817204301075" y="115" width="58.70967741935484" height="30" as="geometry" />
        </mxCell>
        <mxCell id="a04T6ebmpYnLz7vBh2No-65" value="Expiry" style="text;html=1;strokeColor=none;fillColor=none;align=center;verticalAlign=middle;whiteSpace=wrap;rounded=0;" vertex="1" parent="a04T6ebmpYnLz7vBh2No-30">
          <mxGeometry x="332.68817204301075" y="145" width="58.70967741935484" height="30" as="geometry" />
        </mxCell>
        <mxCell id="a04T6ebmpYnLz7vBh2No-66" value="" style="rounded=0;whiteSpace=wrap;html=1;" vertex="1" parent="a04T6ebmpYnLz7vBh2No-30">
          <mxGeometry x="401.18279569892474" y="150" width="68.49462365591398" height="20" as="geometry" />
        </mxCell>
        <mxCell id="a04T6ebmpYnLz7vBh2No-67" value="4111 1111 1111&amp;nbsp;" style="text;html=1;strokeColor=none;fillColor=none;align=center;verticalAlign=middle;whiteSpace=wrap;rounded=0;" vertex="1" parent="a04T6ebmpYnLz7vBh2No-30">
          <mxGeometry x="391.39784946236557" y="120" width="117.41935483870968" height="20" as="geometry" />
        </mxCell>
        <mxCell id="a04T6ebmpYnLz7vBh2No-68" value="&lt;font color=&quot;#0000ff&quot;&gt;Visa&lt;/font&gt;" style="text;html=1;strokeColor=none;fillColor=none;align=center;verticalAlign=middle;whiteSpace=wrap;rounded=0;fontStyle=3;fontColor=#007FFF;" vertex="1" parent="a04T6ebmpYnLz7vBh2No-30">
          <mxGeometry x="508.81720430107526" y="115" width="58.70967741935484" height="30" as="geometry" />
        </mxCell>
        <mxCell id="a04T6ebmpYnLz7vBh2No-69" value="09/24" style="text;html=1;strokeColor=none;fillColor=none;align=center;verticalAlign=middle;whiteSpace=wrap;rounded=0;" vertex="1" parent="a04T6ebmpYnLz7vBh2No-30">
          <mxGeometry x="405.0967741935484" y="146" width="58.70967741935484" height="30" as="geometry" />
        </mxCell>
        <mxCell id="a04T6ebmpYnLz7vBh2No-101" value="" style="rounded=0;whiteSpace=wrap;html=1;strokeWidth=0;fillColor=#000000;fillOpacity=40;" vertex="1" parent="a04T6ebmpYnLz7vBh2No-30">
          <mxGeometry x="322.90322580645164" y="40" width="244.6236559139785" height="140" as="geometry" />
        </mxCell>
        <mxCell id="a04T6ebmpYnLz7vBh2No-102" value="" style="endArrow=classic;html=1;rounded=0;" edge="1" parent="a04T6ebmpYnLz7vBh2No-30">
          <mxGeometry width="50" height="50" relative="1" as="geometry">
            <mxPoint x="347.36559139784947" y="65" as="sourcePoint" />
            <mxPoint x="327.7956989247312" y="64.92898989898985" as="targetPoint" />
          </mxGeometry>
        </mxCell>
      </root>
    </mxGraphModel>
  </diagram>
</mxfile>
